<?xml version="1.0" standalone="no"?>
<!DOCTYPE svg PUBLIC "-//W3C//DTD SVG 20010904//EN"
 "http://www.w3.org/TR/2001/REC-SVG-20010904/DTD/svg10.dtd">
<svg version="1.0" xmlns="http://www.w3.org/2000/svg"
 width="172.000000pt" height="143.000000pt" viewBox="0 0 172.000000 143.000000"
 preserveAspectRatio="xMidYMid meet">
<metadata>
Created by potrace 1.16, written by Peter Selinger 2001-2019
</metadata>
<g transform="translate(0.000000,143.000000) scale(0.100000,-0.100000)"
fill="#0b45f4" stroke="none">
<path d="M427 1202 c-235 -119 -427 -219 -427 -222 0 -4 109 -60 242 -125 134
-65 246 -120 250 -122 3 -2 77 58 164 132 87 74 165 135 174 135 24 0 42 -24
34 -44 -3 -9 -71 -71 -151 -138 l-145 -122 149 -75 150 -74 419 212 c230 117
423 216 428 221 5 5 -179 103 -423 224 -237 119 -432 216 -433 216 -2 0 -195
-98 -431 -218z"/>
<path d="M1168 614 l-307 -154 -142 70 c-78 39 -143 69 -145 67 -3 -2 9 -77
26 -167 16 -89 30 -168 30 -176 0 -19 -72 -54 -111 -54 -33 0 -85 26 -93 47
-3 7 6 92 19 190 14 97 25 186 25 197 0 17 -21 32 -105 74 l-105 52 0 -211 c0
-137 4 -226 12 -252 7 -24 34 -64 66 -99 185 -200 638 -249 936 -101 86 43
162 113 192 178 23 48 24 60 24 273 0 122 -3 222 -7 222 -5 -1 -146 -71 -315
-156z"/>
</g>
</svg>









