<?xml version="1.0" standalone="no"?>
<!DOCTYPE svg PUBLIC "-//W3C//DTD SVG 20010904//EN"
 "http://www.w3.org/TR/2001/REC-SVG-20010904/DTD/svg10.dtd">
<svg version="1.1" xmlns="http://www.w3.org/2000/svg"
 width="855.000000pt" height="200.000000pt" viewBox="0 0 848.000000 186.000000"
 preserveAspectRatio="xMidYMid meet">
<metadata>
Created by potrace 1.16, written by Peter Selinger 2001-2019
</metadata>
<g transform="translate(0.000000,186.000000) scale(0.100000,-0.100000)"
fill="#0b45f4" stroke="none">
<path d="M2259 1747 c-170 -48 -269 -204 -257 -406 10 -166 107 -288 261 -327
122 -32 247 -1 337 83 52 49 54 53 38 69 -16 16 -19 15 -59 -20 -149 -135
-359 -92 -435 90 -56 135 -27 308 68 403 104 105 270 85 332 -41 14 -28 26
-60 26 -70 0 -13 8 -18 30 -18 l30 0 0 120 0 120 -39 0 c-34 0 -38 -3 -34 -20
7 -25 6 -25 -52 1 -59 26 -182 34 -246 16z"/>
<path d="M2970 1747 c-129 -36 -223 -149 -251 -299 -30 -162 49 -340 178 -407
88 -44 222 -51 325 -15 144 49 249 248 219 415 -33 191 -159 306 -343 315 -50
2 -101 -1 -128 -9z m161 -49 c109 -32 199 -188 199 -342 0 -75 -36 -173 -83
-223 -22 -24 -53 -51 -68 -58 -85 -44 -183 -22 -253 56 -148 164 -119 464 53
552 60 30 93 33 152 15z"/>
<path d="M5583 1746 c-129 -41 -216 -151 -244 -310 -23 -135 18 -266 109 -347
97 -88 242 -107 411 -55 47 14 92 26 102 26 14 0 17 15 21 113 3 61 8 119 12
129 4 9 21 22 37 28 17 8 29 20 29 31 0 18 -9 19 -125 19 l-125 0 0 -30 c0
-30 1 -31 35 -24 l35 6 0 -111 0 -112 -44 -20 c-190 -84 -368 41 -383 270 -14
199 101 352 263 351 86 -1 176 -73 192 -155 6 -34 12 -40 35 -43 l27 -3 0 120
0 121 -35 0 c-25 0 -35 -4 -35 -16 0 -11 -5 -14 -17 -9 -92 35 -224 44 -300
21z"/>
<path d="M6667 1741 c-197 -79 -280 -338 -177 -547 34 -69 86 -120 159 -156
40 -19 62 -22 161 -23 102 0 121 3 165 24 143 71 226 244 197 413 -22 130 -93
227 -201 280 -66 32 -234 37 -304 9z m250 -62 c75 -46 132 -161 140 -278 13
-189 -92 -341 -237 -341 -181 0 -308 243 -240 462 51 166 206 238 337 157z"/>
<path d="M6120 1721 c0 -28 2 -29 35 -24 l35 6 0 -301 c0 -260 -2 -303 -16
-316 -8 -9 -24 -16 -35 -16 -14 0 -19 -7 -19 -25 l0 -25 125 0 125 0 0 31 c0
31 -1 31 -37 27 l-38 -5 5 306 5 306 33 14 c19 9 32 22 32 33 0 16 -11 18
-125 18 l-125 0 0 -29z"/>
<path d="M7260 1721 c0 -28 2 -29 36 -24 l35 6 -3 -300 c-3 -316 -6 -333 -49
-333 -14 0 -19 -7 -19 -25 l0 -25 100 0 100 0 0 31 c0 31 -1 31 -35 26 l-35
-6 0 250 c0 137 2 249 4 249 2 0 97 -126 212 -280 199 -268 209 -280 241 -280
l33 0 0 319 c0 176 4 331 9 344 5 14 21 27 35 31 17 4 26 13 26 26 0 19 -7 20
-100 20 l-100 0 0 -25 c0 -22 4 -25 35 -25 l35 0 0 -256 c0 -140 -3 -253 -7
-250 -5 2 -100 128 -213 280 l-205 275 -67 1 -68 0 0 -29z"/>
<path d="M3520 1715 c0 -22 4 -25 38 -25 l37 0 -5 -302 -5 -303 -32 -15 c-18
-8 -33 -23 -33 -32 0 -17 19 -18 265 -18 l265 0 0 110 c0 109 0 110 -24 110
-20 0 -24 -6 -29 -46 -5 -51 -31 -92 -68 -111 -14 -8 -65 -13 -126 -13 l-103
0 0 298 c0 277 1 300 18 315 10 10 26 17 35 17 10 0 17 8 17 20 0 19 -7 20
-125 20 l-125 0 0 -25z"/>
<path d="M4120 1715 c0 -22 4 -25 35 -25 l35 0 0 -290 0 -291 -25 -24 c-13
-14 -29 -25 -35 -25 -5 0 -10 -9 -10 -20 0 -19 7 -20 259 -20 l260 0 3 110 3
111 -25 -3 c-21 -3 -26 -10 -31 -49 -15 -101 -44 -119 -194 -119 l-105 0 0
293 c0 249 2 296 16 315 8 12 24 22 35 22 12 0 19 7 19 20 0 19 -7 20 -120 20
l-120 0 0 -25z"/>
<path d="M4710 1715 c0 -22 4 -25 35 -25 l35 0 0 -290 0 -291 -25 -24 c-13
-14 -29 -25 -35 -25 -5 0 -10 -9 -10 -20 0 -20 7 -20 270 -20 l270 0 0 83 c0
45 3 92 6 105 5 18 2 22 -19 22 -25 0 -37 -16 -37 -51 0 -35 -28 -76 -64 -93
-25 -12 -63 -16 -145 -16 l-111 0 0 149 0 148 56 6 c83 9 124 -11 124 -60 0
-18 6 -23 25 -23 l25 0 0 110 0 110 -31 0 -32 0 6 -45 7 -45 -90 0 -90 0 0
115 c0 110 1 117 25 140 21 22 33 25 100 25 49 0 87 -5 106 -16 31 -15 59 -66
59 -104 0 -15 7 -20 25 -20 23 0 25 4 25 44 0 24 -3 64 -6 90 l-7 46 -248 0
-249 0 0 -25z"/>
<path d="M427 1432 c-235 -119 -427 -219 -427 -222 0 -4 109 -60 242 -125 134
-65 246 -120 250 -122 3 -2 77 58 164 132 87 74 165 135 174 135 24 0 42 -24
34 -44 -3 -9 -71 -71 -151 -138 l-145 -122 149 -75 150 -74 432 219 432 219
-433 217 c-238 119 -435 217 -438 217 -3 0 -197 -97 -433 -217z"/>
<path d="M1168 844 l-307 -154 -142 70 c-78 39 -143 69 -145 67 -3 -2 9 -77
26 -167 16 -89 30 -168 30 -176 0 -19 -72 -54 -111 -54 -33 0 -85 26 -93 47
-3 7 6 92 19 190 14 97 25 186 25 197 0 17 -21 32 -105 74 l-105 52 0 -211 c0
-137 4 -226 12 -252 7 -24 34 -64 66 -99 185 -200 638 -249 936 -101 86 43
162 113 192 178 23 48 24 60 24 273 0 122 -3 222 -7 222 -5 -1 -146 -71 -315
-156z"/>
<path d="M2590 570 c0 -5 9 -10 20 -10 19 0 20 -7 20 -160 0 -136 -2 -160 -15
-160 -8 0 -15 -7 -15 -15 0 -13 22 -15 140 -15 118 0 140 2 140 15 0 8 -7 15
-15 15 -13 0 -15 26 -15 170 l0 170 -55 0 c-30 0 -55 -4 -55 -10 0 -5 7 -10
15 -10 13 0 15 -24 15 -160 l0 -160 -35 0 -35 0 0 170 0 170 -55 0 c-30 0 -55
-4 -55 -10z"/>
<path d="M2143 541 c-81 -21 -129 -93 -121 -183 9 -89 66 -140 161 -146 49 -2
69 1 95 18 32 19 50 45 39 56 -2 3 -22 -6 -42 -21 -73 -49 -140 -24 -166 63
-41 137 70 248 157 157 18 -19 37 -35 43 -35 6 0 11 21 11 50 0 38 -4 50 -15
50 -8 0 -15 -5 -15 -11 0 -6 -6 -9 -14 -6 -29 11 -102 15 -133 8z"/>
<path d="M3800 535 c0 -8 9 -15 20 -15 19 0 20 -7 20 -140 0 -133 -1 -140 -20
-140 -11 0 -20 -7 -20 -15 0 -12 13 -15 55 -15 42 0 55 3 55 15 0 8 -9 15 -20
15 -19 0 -20 7 -20 120 0 66 1 120 3 120 2 0 28 -59 57 -130 37 -89 58 -130
68 -128 8 2 36 57 63 123 l48 120 1 -112 c0 -106 -1 -113 -20 -113 -11 0 -20
-7 -20 -15 0 -12 16 -15 80 -15 64 0 80 3 80 15 0 8 -9 15 -20 15 -19 0 -20 7
-20 140 0 133 1 140 20 140 11 0 20 7 20 15 0 12 -14 15 -63 15 l-64 0 -43
-110 -43 -111 -45 111 -45 110 -64 0 c-49 0 -63 -3 -63 -15z"/>
<path d="M6938 534 c-81 -44 -55 -140 49 -179 52 -19 93 -51 93 -72 0 -7 -11
-20 -25 -29 -33 -21 -78 -11 -109 27 -37 43 -56 38 -56 -15 l0 -43 90 -2 c103
-2 126 7 145 53 26 62 5 98 -80 137 -97 44 -120 86 -59 109 32 13 75 -5 89
-38 5 -12 18 -22 27 -22 15 0 18 9 18 44 l0 44 -77 1 c-51 0 -87 -5 -105 -15z"/>
<path d="M6588 518 c-23 -8 -28 -16 -28 -44 0 -24 -5 -34 -15 -34 -8 0 -15 -4
-15 -10 0 -5 7 -10 15 -10 12 0 15 -15 15 -78 0 -102 13 -122 79 -122 31 0 53
5 61 15 18 21 5 30 -24 17 -36 -16 -46 2 -46 90 l0 78 35 0 c19 0 35 5 35 10
0 6 -16 10 -35 10 -35 0 -35 0 -35 45 0 48 -1 49 -42 33z"/>
<path d="M7683 520 c-18 -7 -23 -17 -23 -45 0 -24 -4 -35 -15 -35 -8 0 -15 -4
-15 -10 0 -5 7 -10 15 -10 12 0 15 -16 15 -84 0 -64 4 -88 16 -100 27 -28 134
-16 134 15 0 7 -14 8 -40 4 l-40 -7 0 86 0 86 35 0 c26 0 35 4 35 16 0 13 -7
15 -35 11 l-35 -6 0 45 c0 46 -6 50 -47 34z"/>
<path d="M3330 475 c-7 -8 -10 -21 -7 -28 4 -11 -7 -13 -49 -9 -49 4 -56 2
-84 -26 -33 -33 -38 -66 -15 -99 13 -19 13 -22 0 -27 -17 -6 -21 -61 -5 -71 7
-4 5 -14 -5 -28 -38 -54 2 -91 101 -91 83 0 118 23 122 81 4 54 -14 66 -104
73 -41 3 -75 10 -77 15 -1 6 26 12 59 15 74 6 104 28 104 76 0 18 -5 36 -11
39 -6 5 -3 13 10 22 25 17 28 58 5 67 -23 9 -30 8 -44 -9z"/>
<path d="M5233 483 c-7 -2 -13 -14 -13 -26 0 -20 -4 -22 -55 -19 -47 3 -57 1
-80 -22 -26 -26 -35 -82 -15 -102 8 -8 5 -20 -7 -42 -17 -29 -17 -31 0 -50 16
-17 16 -21 2 -32 -22 -18 -18 -56 7 -74 29 -21 139 -21 177 -1 30 15 41 33 41
69 0 46 -22 59 -105 65 -50 4 -80 11 -83 19 -3 9 13 12 56 12 49 0 64 4 86 25
28 25 33 54 16 86 -8 15 -7 21 4 25 21 8 30 42 16 59 -13 15 -25 17 -47 8z"/>
<path d="M7908 443 c-34 -5 -75 -44 -84 -77 -10 -40 4 -90 31 -116 37 -35 129
-40 168 -10 36 29 21 52 -17 26 -52 -33 -106 -7 -106 51 0 22 4 23 75 23 71 0
75 1 75 23 0 35 -27 65 -68 77 -20 5 -39 9 -42 8 -3 0 -17 -3 -32 -5z"/>
<path d="M8216 443 c-4 -4 -38 -6 -76 -5 -43 2 -70 -1 -70 -8 0 -5 7 -10 15
-10 12 0 15 -17 15 -90 0 -73 -3 -90 -15 -90 -8 0 -15 -4 -15 -10 0 -6 53 -10
140 -10 87 0 140 4 140 10 0 6 -7 10 -15 10 -12 0 -15 15 -15 75 0 69 2 76 26
92 25 16 27 16 40 -2 9 -12 14 -46 14 -92 0 -66 -2 -73 -20 -73 -11 0 -20 -4
-20 -10 0 -6 26 -10 58 -10 l58 0 -3 68 c-6 119 -10 132 -49 148 -33 14 -77
11 -100 -7 -7 -6 -26 -3 -47 6 -41 17 -51 18 -61 8z"/>
<path d="M2400 423 c-73 -38 -77 -151 -7 -193 60 -37 151 -18 176 37 50 110
-61 212 -169 156z"/>
<path d="M2955 428 c-57 -31 -75 -120 -34 -171 23 -30 86 -51 126 -41 35 8 73
31 73 44 0 15 -28 12 -56 -6 -20 -14 -30 -15 -50 -6 -22 11 -44 47 -44 73 0 5
36 9 81 9 70 0 80 2 75 16 -3 9 -6 22 -6 30 0 8 -11 26 -25 39 -19 20 -34 25
-72 25 -26 0 -57 -6 -68 -12z"/>
<path d="M3465 428 c-57 -31 -75 -120 -34 -171 23 -30 86 -51 126 -41 35 8 73
31 73 44 0 15 -28 12 -56 -6 -20 -14 -30 -15 -50 -6 -22 11 -44 47 -44 73 0 5
36 9 81 9 70 0 80 2 75 16 -3 9 -6 22 -6 30 0 8 -11 26 -25 39 -19 20 -34 25
-72 25 -26 0 -57 -6 -68 -12z"/>
<path d="M4290 427 c-17 -8 -25 -21 -25 -37 0 -21 5 -25 30 -25 23 0 30 5 35
25 5 23 11 26 40 22 6 -1 10 -17 10 -34 0 -33 0 -33 -48 -33 -27 0 -56 -6 -65
-14 -21 -17 -22 -74 -2 -94 21 -22 67 -30 98 -18 19 7 35 7 52 -1 19 -8 31 -8
50 0 15 7 25 8 25 2 0 -6 59 -10 150 -10 127 0 150 2 150 15 0 8 -9 15 -20 15
-18 0 -20 7 -20 80 0 112 -8 118 -151 119 -89 0 -109 -3 -109 -14 0 -8 9 -15
20 -15 18 0 20 -7 20 -85 0 -89 -1 -91 -46 -79 -19 5 -22 15 -26 82 -4 63 -9
79 -28 94 -26 21 -102 24 -140 5z"/>
<path d="M4832 425 c-32 -23 -26 -59 11 -63 18 -2 29 2 32 12 3 9 7 23 10 31
8 28 45 -1 45 -35 0 -27 -2 -28 -32 -24 -70 12 -124 -38 -100 -91 16 -35 57
-50 106 -37 25 7 47 7 60 0 14 -6 31 -6 49 1 32 12 36 31 7 31 -18 0 -20 7
-20 73 0 96 -10 109 -86 114 -44 3 -65 0 -82 -12z"/>
<path d="M5338 411 c-29 -26 -33 -35 -33 -81 0 -46 4 -55 33 -81 27 -24 41
-29 86 -29 58 0 118 32 97 53 -7 7 -14 7 -23 -1 -8 -6 -26 -16 -41 -21 -24 -9
-31 -8 -53 14 -13 13 -24 36 -24 50 0 25 1 25 75 25 74 0 75 0 75 25 0 14 -11
37 -25 50 -20 21 -34 25 -79 25 -47 0 -61 -4 -88 -29z"/>
<path d="M5550 425 c0 -8 7 -15 15 -15 12 0 15 -16 15 -85 0 -69 -3 -85 -15
-85 -8 0 -15 -4 -15 -10 0 -6 30 -10 70 -10 40 0 70 4 70 10 0 6 -7 10 -15 10
-13 0 -15 13 -13 76 3 81 17 104 52 91 23 -9 24 -167 1 -167 -8 0 -15 -4 -15
-10 0 -6 53 -10 140 -10 87 0 140 4 140 10 0 6 -7 10 -15 10 -12 0 -15 16 -15
80 0 68 -3 83 -21 101 -18 18 -29 20 -72 15 -29 -3 -59 -6 -67 -5 -8 0 -66 2
-127 5 -97 4 -113 2 -113 -11z"/>
<path d="M6029 411 c-25 -25 -29 -37 -29 -81 0 -44 4 -56 29 -81 26 -26 37
-29 89 -29 44 0 66 5 83 19 19 16 21 22 12 32 -10 10 -16 9 -31 -4 -22 -20
-75 -22 -91 -4 -6 8 -14 28 -17 45 l-6 32 81 0 81 0 -6 28 c-11 48 -48 72
-110 72 -48 0 -60 -4 -85 -29z"/>
<path d="M6240 425 c0 -8 9 -15 20 -15 18 0 20 -7 20 -85 0 -78 -2 -85 -20
-85 -11 0 -20 -4 -20 -10 0 -6 57 -10 150 -10 93 0 150 4 150 10 0 6 -9 10
-20 10 -18 0 -20 7 -20 80 0 114 -6 118 -149 119 -91 0 -111 -3 -111 -14z"/>
<path d="M7140 430 c0 -5 6 -10 13 -10 6 0 34 -47 60 -104 48 -103 48 -104 32
-136 -13 -25 -19 -29 -30 -20 -8 6 -24 9 -35 5 -16 -5 -20 -14 -18 -33 3 -23
8 -27 39 -30 48 -4 60 13 130 185 30 73 60 133 67 133 6 0 12 5 12 10 0 6 -22
10 -50 10 -27 0 -50 -4 -50 -10 0 -5 7 -10 15 -10 8 0 15 -3 15 -7 0 -16 -34
-103 -41 -103 -13 0 -52 104 -40 108 6 2 11 8 11 13 0 5 -29 9 -65 9 -37 0
-65 -4 -65 -10z"/>
<path d="M7450 420 c-43 -43 -17 -90 74 -129 41 -18 47 -23 36 -36 -18 -22
-48 -18 -76 10 -35 36 -54 32 -54 -9 l0 -34 75 -1 c63 -1 78 2 95 19 42 42 17
91 -63 120 -44 16 -59 43 -31 54 11 4 29 -1 46 -14 39 -29 58 -26 58 10 l0 30
-70 0 c-57 0 -74 -4 -90 -20z"/>
</g>
</svg>









